<svg width="81" height="69" viewBox="0 0 81 69" fill="none" xmlns="http://www.w3.org/2000/svg">
<g clip-path="url(#clip0_307_205)">
<path d="M0 24.4487L2.32444 23.1576L6.19851 30.1222C8.40446 13.0017 22.971 0 40.6003 0C55.2944 0 68.448 9.30122 73.3339 23.1485L73.7714 24.3759L72.5044 24.7033C72.4406 24.7214 72.0486 24.8396 72.0486 24.8396L71.2373 25.0851L70.8271 24.0395C66.3059 11.2378 54.1641 2.6549 40.6003 2.6549C23.8643 2.6549 9.86293 15.8021 8.65969 32.277L17.3832 27.44L18.6776 29.7585L6.67252 36.4139L0 24.4487Z" fill="#231F20"/>
<path d="M72.468 23.4485C67.7188 9.96495 54.9116 0.90921 40.6003 0.90921C22.4605 0.90921 7.61145 15.2475 6.85487 33.168L1.96898 24.3941L1.23975 24.8033L6.82752 34.8319L6.85487 34.8864L7.01895 35.1865L7.56588 34.8864L7.66615 34.8319L17.4379 29.4221L17.0277 28.6947L7.66615 33.8772C8.05811 16.093 22.6793 1.74568 40.6003 1.74568C54.547 1.74568 67.0351 10.5741 71.6749 23.7122L71.7752 23.9668L72.0395 23.885C72.1125 23.8577 72.1945 23.8395 72.2674 23.8213L72.5682 23.7395L72.468 23.4485Z" fill="#231F20"/>
<path d="M40.0715 69C24.7758 69 11.0935 58.7714 6.79097 44.124L6.41724 42.8511L7.72075 42.6056L9.05161 42.3965L9.3433 43.3966C13.3268 56.9075 25.9517 66.336 40.0533 66.336C40.4179 66.336 40.7825 66.336 41.1471 66.3178C57.874 65.7541 71.4196 52.1432 72.0668 35.632L63.5074 40.7599L62.1401 38.4869L73.9172 31.4314L80.9908 43.1784L78.712 44.5422L74.6009 37.7141C72.9783 54.8891 58.8585 68.3817 41.2474 68.9727C40.8555 68.9818 40.4544 68.9909 40.0624 68.9909L40.0715 69Z" fill="#231F20"/>
<path d="M73.8261 33.0316L73.7988 32.9771L73.6165 32.677L73.0787 32.9953L72.9875 33.0498L63.4072 38.7869L63.8356 39.5052L73.0149 34.0136C73.2245 51.7977 59.1047 66.627 41.1928 67.227C26.1887 67.7362 12.7161 58.0349 8.47738 43.6512L8.40446 43.4057L8.15834 43.4421C8.06719 43.4603 7.97603 43.4694 7.89399 43.4876L7.57495 43.5421L7.66611 43.8512C11.8957 58.2531 25.1131 68.0726 40.0716 68.0726C40.4544 68.0726 40.8373 68.0726 41.2201 68.0544C59.3508 67.4452 73.6985 52.6069 73.8535 34.6773L79.0311 43.2784L79.7512 42.8511L73.8261 33.0134V33.0316Z" fill="#231F20"/>
<path d="M36.79 30.9041H34.9669V24.6942H32.843V23.4849C33.4082 23.4576 33.791 23.4213 34.0189 23.3758C34.3744 23.294 34.6661 23.1394 34.894 22.903C35.049 22.7394 35.1675 22.5302 35.2404 22.2575C35.286 22.0938 35.3133 21.9756 35.3133 21.8938H36.79V30.9041Z" fill="black"/>
<path d="M45.7322 27.5764V28.9584H44.7113V30.895H42.9702V28.9584H39.397V27.4127L42.715 21.9484H44.7113V27.5764H45.7322ZM40.7096 27.5764H42.9702V23.685L40.7096 27.5764Z" fill="black"/>
<path d="M26.845 46.1697H22.8889V37.014H26.845C27.4102 37.014 27.8842 37.0867 28.267 37.214C28.9142 37.4231 29.4338 37.8141 29.8349 38.3778C30.1539 38.8324 30.3727 39.3234 30.4912 39.8598C30.6097 40.3871 30.6644 40.8963 30.6644 41.3782C30.6644 42.5965 30.4183 43.6239 29.9261 44.4695C29.2606 45.606 28.2397 46.1788 26.845 46.1788V46.1697ZM28.2762 39.3506C27.9845 38.8506 27.4011 38.6051 26.526 38.6051H24.7576V44.5786H26.526C27.4284 44.5786 28.0665 44.1331 28.422 43.2421C28.6134 42.7511 28.7137 42.1692 28.7137 41.4964C28.7137 40.5599 28.5678 39.8507 28.2762 39.3506Z" fill="black"/>
<path d="M37.4827 44.2877H34.1009L33.4628 46.1697H31.4574L34.7298 37.014H36.8993L40.1535 46.1697H38.0752L37.4827 44.2877ZM36.9449 42.7056L35.7964 39.1052L34.6114 42.7056H36.9449Z" fill="black"/>
<path d="M47.5644 37.014L44.4925 42.7329V46.1788H42.5783V42.7329L39.397 37.014H41.6576L43.5627 41.0054L45.3858 37.014H47.5553H47.5644Z" fill="black"/>
<path d="M51.9946 44.8514C52.4504 44.8514 52.815 44.8059 53.0976 44.7059C53.6354 44.515 53.8997 44.1604 53.8997 43.6421C53.8997 43.3421 53.763 43.1057 53.4986 42.942C53.2343 42.7784 52.815 42.642 52.2498 42.5147L51.2745 42.2965C50.3173 42.0783 49.661 41.851 49.2964 41.5964C48.6766 41.1782 48.3666 40.5144 48.3666 39.6143C48.3666 38.796 48.6674 38.1141 49.2599 37.5686C49.8616 37.0231 50.7367 36.7503 51.8943 36.7503C52.8606 36.7503 53.6901 37.0049 54.3737 37.514C55.0574 38.0232 55.4129 38.7688 55.4493 39.7416H53.608C53.5716 39.187 53.3346 38.796 52.8879 38.5687C52.5871 38.4142 52.2134 38.3414 51.7758 38.3414C51.2836 38.3414 50.8825 38.4414 50.5908 38.6415C50.2991 38.8415 50.1441 39.1143 50.1441 39.4779C50.1441 39.8053 50.29 40.0507 50.5817 40.2144C50.7731 40.3235 51.1651 40.4508 51.7758 40.5963L53.3619 40.9781C54.0547 41.1418 54.5743 41.3691 54.9298 41.6419C55.4767 42.0692 55.7502 42.6965 55.7502 43.5148C55.7502 44.3331 55.4311 45.0423 54.7839 45.5969C54.1458 46.1515 53.2343 46.4243 52.0675 46.4243C50.9007 46.4243 49.9345 46.1515 49.2417 45.606C48.5581 45.0605 48.2117 44.3149 48.2117 43.3603H50.0439C50.0986 43.7785 50.2171 44.0876 50.3903 44.2968C50.7002 44.6695 51.238 44.8605 51.9946 44.8605V44.8514Z" fill="black"/>
</g>
<defs>
<clipPath id="clip0_307_205">
<rect width="81" height="69" fill="white"/>
</clipPath>
</defs>
</svg>
