<svg width="64" height="72" viewBox="0 0 64 72" fill="none" xmlns="http://www.w3.org/2000/svg">
<g clip-path="url(#clip0_307_193)">
<mask id="mask0_307_193" style="mask-type:luminance" maskUnits="userSpaceOnUse" x="0" y="0" width="64" height="72">
<path d="M63.9114 0H0V72H63.9114V0Z" fill="white"/>
</mask>
<g mask="url(#mask0_307_193)">
<path d="M4.40852 22.0573C6.59059 26.5176 10.3566 30.433 15.2192 32.4129L14.8647 28.3752C14.8758 25.3831 17.3126 22.9026 20.403 22.8693L26.1628 23.3142C26.052 13.9596 22.7955 6.61837 17.3348 3.61512C13.9343 1.74644 10.1683 1.86879 7.0115 3.95994C1.05234 7.87528 1.48433 16.0841 4.40852 22.0573ZM26.7277 38.1969C27.647 39.1424 29.2863 39.1201 30.2168 38.1858C31.1693 37.2181 31.1583 35.6386 30.1946 34.682C30.1503 34.682 30.1171 34.7043 30.0838 34.7265C28.7325 35.1937 27.4144 35.5385 26.1185 35.7721C25.9302 36.3282 26.0742 37.5407 26.7166 38.208L26.7277 38.1969ZM17.6006 33.2026C19.7605 33.7588 22.1198 33.9256 24.6121 33.6253C24.756 33.4362 24.889 33.2471 25.0662 33.0692C26.8495 31.245 30.0063 31.2227 31.8229 33.0247C33.6948 34.8822 33.7059 37.93 31.8561 39.8098C30.9589 40.7219 29.7515 41.2335 28.4667 41.2335C27.1818 41.2335 26.0077 40.7441 25.0994 39.8431C24.1911 38.9422 23.7481 37.1736 23.7149 36.0502C23.1832 36.0947 22.6515 36.1169 22.1309 36.1169C20.6245 36.1169 19.1846 35.9389 17.8 35.6497C17.8 35.6497 18.1655 38.9199 18.2763 41.1334C18.3871 43.3358 18.52 45.1934 19.8049 46.4725L42.2126 68.7633C43.3867 69.9312 45.458 69.9201 46.6211 68.741L60.7879 54.3477C61.3749 53.7582 61.6851 52.9684 61.6851 52.1342C61.6851 51.3 61.3528 50.5102 60.7657 49.9318L38.358 27.6522C37.1174 26.4175 34.9353 26.2173 33.4843 26.1617C31.6346 26.095 20.3144 25.194 20.3144 25.194C18.5864 25.2162 17.1686 26.6511 17.1576 28.2862L17.5896 33.2138L17.6006 33.2026ZM5.7377 2.01339C9.58125 -0.511556 14.322 -0.678403 18.4314 1.57959C24.6785 5.00551 28.3891 13.181 28.4667 23.4922C28.4667 23.4922 31.9336 23.8036 33.4843 23.837C35.0461 23.8703 38.0589 24.0928 39.9752 25.9949L62.3829 48.2745C63.413 49.2978 63.9779 50.6548 63.989 52.1231C63.989 53.5802 63.4352 54.9595 62.4272 55.9828L48.2604 70.3761C47.2413 71.4106 45.8679 71.989 44.4058 71.989C42.9437 71.989 41.6034 71.4328 40.5844 70.4206L18.1766 48.1299C16.1164 46.0721 16.1385 43.5138 15.9613 41.2335C15.7841 38.9533 15.4186 35.0046 15.4186 35.0046C9.48156 32.9691 4.89589 28.353 2.31507 23.0695C-1.76109 14.6938 -0.365447 6.03996 5.7377 2.01339Z" fill="black"/>
</g>
</g>
<defs>
<clipPath id="clip0_307_193">
<rect width="64" height="72" fill="white"/>
</clipPath>
</defs>
</svg>
