<svg width="65" height="75" viewBox="0 0 65 75" fill="none" xmlns="http://www.w3.org/2000/svg">
<g clip-path="url(#clip0_307_199)">
<mask id="mask0_307_199" style="mask-type:luminance" maskUnits="userSpaceOnUse" x="0" y="0" width="65" height="75">
<path d="M65 0H0V75H65V0Z" fill="white"/>
</mask>
<g mask="url(#mask0_307_199)">
<path d="M13.1663 56.2645C12.8314 56.8337 12.1037 57.0427 11.5263 56.7059L5.2896 53.0935C4.71213 52.7567 4.51579 52.0249 4.85072 51.4558C5.18565 50.875 5.91326 50.6776 6.49073 51.0144L12.7274 54.6268C13.3049 54.9636 13.5012 55.6954 13.1663 56.2645ZM64.9653 59.691C64.9653 63.919 63.256 67.752 60.4957 70.5165C57.7354 73.2809 53.9241 75 49.7201 75C45.8164 75 42.2477 73.5249 39.5567 71.0856L33.2045 74.7677C33.1583 74.8025 33.1121 74.8258 33.0659 74.849C33.0659 74.849 33.0428 74.849 33.0312 74.8606C32.985 74.8838 32.9389 74.9071 32.8927 74.9187C32.8927 74.9187 32.8927 74.9187 32.8811 74.9187C32.8349 74.9303 32.7772 74.9535 32.7194 74.9535C32.7194 74.9535 32.6963 74.9535 32.6848 74.9535C32.627 74.9535 32.5693 74.9652 32.5115 74.9652C32.5115 74.9652 32.4076 74.9651 32.3498 74.9535C32.3383 74.9535 32.3267 74.9535 32.3036 74.9535C32.2459 74.9535 32.1997 74.9303 32.1535 74.9187H32.1304C32.0842 74.9071 32.0495 74.8838 32.0033 74.8606C31.9918 74.8606 31.9803 74.8606 31.9687 74.849C31.9225 74.8258 31.8763 74.8025 31.8417 74.7677L0.646739 56.6943C0.265609 56.4736 0.0461704 56.0671 0.0461704 55.6489V19.4672C0.0230716 19.0259 0.230961 18.5845 0.63519 18.3406L31.8994 0.220686C32.2574 0.0116108 32.7194 -0.0116198 33.1005 0.220686L64.3532 18.3522C64.3532 18.3522 64.3879 18.3754 64.3994 18.387C64.411 18.387 64.4225 18.3986 64.4341 18.4102C64.4572 18.4219 64.4803 18.4451 64.4918 18.4567C64.5149 18.4799 64.538 18.5032 64.5611 18.5148C64.5611 18.5148 64.5842 18.538 64.5957 18.5496C64.6304 18.5845 64.6535 18.6077 64.6766 18.6426C64.6766 18.6426 64.6881 18.6658 64.6997 18.6774C64.7228 18.7122 64.7459 18.7471 64.769 18.7819C64.769 18.7819 64.769 18.7819 64.769 18.7936C64.7805 18.8168 64.7921 18.8516 64.8152 18.8749C64.8152 18.8749 64.8152 18.8865 64.8152 18.8981C64.8267 18.9213 64.8383 18.9562 64.8498 18.9794C64.8498 18.9794 64.8498 18.991 64.8498 19.0026C64.8498 19.0259 64.8614 19.0607 64.8729 19.0839C64.8729 19.0839 64.8729 19.1072 64.8729 19.1188C64.8729 19.142 64.8729 19.1652 64.8845 19.1885C64.8845 19.2001 64.8845 19.2233 64.8845 19.2349V19.3046C64.8845 19.3046 64.8845 19.3395 64.8845 19.3511V55.6373C64.8845 55.9393 64.769 56.2413 64.5495 56.462C64.769 57.4957 64.896 58.5643 64.896 59.6678L64.9653 59.691ZM31.449 35.5312L32.5 36.1468L34.1284 35.206L41.1389 31.1406L12.2885 14.3797L3.64958 19.3859L31.449 35.5196V35.5312ZM14.6793 12.9975L43.5296 29.7352L50.9328 25.4375L22.0824 8.69986L14.6793 12.9975ZM44.9387 36.7857L52.1339 32.6158V27.5399L44.9387 31.7098V36.7857ZM24.4847 7.30602L53.3466 24.0437L61.3735 19.3859L32.5 2.64828L24.4731 7.30602H24.4847ZM2.44844 54.9636L31.2988 71.7013V38.2143L30.4673 37.7265L2.44844 21.4767V54.9636ZM33.7127 71.7013L37.8704 69.2969C36.0572 67.0435 34.8676 64.2558 34.5673 61.2126C34.5673 61.1429 34.5673 61.0849 34.5558 61.0152C34.5442 60.8293 34.5211 60.6435 34.5096 60.4576C34.5096 60.2369 34.498 60.0046 34.498 59.784C34.498 59.7491 34.498 59.7259 34.498 59.691C34.498 55.4631 36.2073 51.63 38.9561 48.8656C41.7048 46.1011 45.5277 44.3821 49.7317 44.3821C49.9742 44.3821 50.2167 44.3821 50.4593 44.4053C50.5401 44.4053 50.621 44.4053 50.6903 44.4169C50.852 44.4169 51.0137 44.4401 51.1753 44.4518L51.4525 44.475C51.6027 44.4866 51.7413 44.5098 51.8914 44.5331C51.9838 44.5447 52.0762 44.5563 52.1686 44.5795C52.3187 44.6028 52.4573 44.626 52.6075 44.6608C52.6999 44.6724 52.7807 44.6957 52.8731 44.7073C53.0925 44.7538 53.3004 44.8002 53.5199 44.8583C53.6238 44.8815 53.7162 44.9164 53.8202 44.9396C53.9357 44.9744 54.0627 45.0093 54.1782 45.0441C54.2937 45.079 54.4092 45.1138 54.5247 45.1603C54.6171 45.1951 54.721 45.23 54.8134 45.2648C54.9289 45.3113 55.0559 45.3577 55.1714 45.4042C55.2523 45.4391 55.3447 45.4739 55.4255 45.5087C55.5526 45.5552 55.6796 45.6133 55.8067 45.6714C55.8644 45.6946 55.9222 45.7294 55.9799 45.7527C56.465 45.9734 56.9269 46.2057 57.3774 46.4728C57.412 46.496 57.4467 46.5193 57.4813 46.5309C57.6199 46.6122 57.7585 46.7051 57.8971 46.7864C57.9433 46.8097 57.9779 46.8445 58.0241 46.8677C58.1627 46.9607 58.3013 47.0536 58.4399 47.1465C58.4746 47.1697 58.5092 47.193 58.5323 47.2162C59.2368 47.7157 59.8951 48.2732 60.5073 48.8888C61.2811 49.667 61.974 50.5382 62.5746 51.4674V21.4999L54.5593 26.1577V33.3243C54.5593 33.7424 54.3399 34.149 53.9588 34.3697L44.4536 39.8753C44.2573 40.0147 44.0147 40.096 43.7606 40.096C43.1023 40.096 42.5595 39.5501 42.5595 38.888V33.1152L33.7358 38.2376V71.7245L33.7127 71.7013ZM62.563 59.691C62.563 56.3574 61.3042 53.3142 59.2368 51.026C59.0982 50.875 58.9596 50.724 58.8095 50.573C57.643 49.4115 56.2686 48.459 54.7326 47.8086C54.5478 47.7273 54.363 47.6576 54.1782 47.5879C54.1551 47.5879 54.132 47.5763 54.1204 47.5647C53.9472 47.5066 53.774 47.4369 53.5892 47.3904C53.5661 47.3904 53.5545 47.3904 53.5314 47.3788C53.1387 47.2627 52.7345 47.1581 52.3303 47.0652C52.3072 47.0652 52.2841 47.0652 52.261 47.0536C52.0877 47.0187 51.9145 46.9839 51.7413 46.9607C51.6835 46.9607 51.6258 46.949 51.568 46.9374C51.4179 46.9142 51.2793 46.9026 51.1407 46.8794C51.0714 46.8794 51.0137 46.8677 50.9444 46.8561C50.7942 46.8445 50.6556 46.8329 50.5055 46.8213C50.4477 46.8213 50.39 46.8213 50.3322 46.8213C50.1244 46.8213 49.928 46.8097 49.7201 46.8097C46.1745 46.8097 42.9637 48.25 40.6423 50.5846C39.4758 51.7462 38.5403 53.14 37.8935 54.6848C37.2468 56.2297 36.8887 57.9255 36.8887 59.7026C36.8887 59.7143 36.8887 59.7259 36.8887 59.7491C36.8887 59.9582 36.8887 60.1673 36.9003 60.3647C36.9003 60.3879 36.9003 60.4228 36.9003 60.446C36.9003 60.6435 36.9234 60.8293 36.9465 61.0152C37.2583 64.0468 38.6096 66.7647 40.6423 68.809C42.9637 71.1437 46.1745 72.584 49.7201 72.584C53.2658 72.584 56.4765 71.1437 58.7979 68.809C61.1194 66.4744 62.5515 63.2453 62.5515 59.691H62.563ZM55.7836 53.3026L45.9319 63.5357L43.6336 61.3056C43.1601 60.8409 42.3978 60.8526 41.9474 61.3288C41.4854 61.805 41.497 62.5716 41.9705 63.0246L45.1235 66.0911C45.597 66.5557 46.3592 66.5324 46.8097 66.0678L57.4929 54.9752C57.9548 54.499 57.9433 53.7324 57.4698 53.2794C56.9962 52.8148 56.234 52.8264 55.7836 53.3026Z" fill="black"/>
</g>
</g>
<defs>
<clipPath id="clip0_307_199">
<rect width="65" height="75" fill="white"/>
</clipPath>
</defs>
</svg>
