<svg width="75" height="80" viewBox="0 0 75 80" fill="none" xmlns="http://www.w3.org/2000/svg">
<g clip-path="url(#clip0_307_261)">
<path d="M44.1835 15.4806L13.969 30.4249C13.4267 30.6932 12.7656 30.4641 12.4933 29.9135C12.221 29.3629 12.4401 28.6985 12.9824 28.4302L43.1969 13.4859C43.7393 13.2177 44.4004 13.4468 44.6727 13.9973C44.945 14.5479 44.7259 15.2124 44.1835 15.4806Z" fill="black"/>
<path d="M47.5739 22.3354L17.3594 37.2798C16.8171 37.548 16.156 37.3189 15.8837 36.7683C15.6114 36.2178 15.8305 35.5533 16.3728 35.285L46.5873 20.3407C47.1297 20.0725 47.7907 20.3016 48.0631 20.8522C48.3354 21.4027 48.1163 22.0672 47.5739 22.3354Z" fill="black"/>
<path d="M28.513 49.9017L26.5481 50.8735L33.7509 65.4363L35.7158 64.4644L28.513 49.9017Z" fill="black"/>
<path d="M52.8018 37.8883L50.8369 38.8601L58.0398 53.4229L60.0046 52.4511L52.8018 37.8883Z" fill="black"/>
<path d="M42.4456 43.0106L40.4807 43.9824L47.6836 58.5452L49.6484 57.5733L42.4456 43.0106Z" fill="black"/>
<path d="M36.9458 45.7307L34.981 46.7025L42.1838 61.2653L44.1487 60.2934L36.9458 45.7307Z" fill="black"/>
<path d="M49.4419 39.55L48.4595 40.0359L55.6623 54.5987L56.6447 54.1128L49.4419 39.55Z" fill="black"/>
<path d="M47.6575 40.4327L46.675 40.9186L53.8779 55.4814L54.8603 54.9955L47.6575 40.4327Z" fill="black"/>
<path d="M45.0427 41.7259L44.0603 42.2119L51.2631 56.7746L52.2456 56.2887L45.0427 41.7259Z" fill="black"/>
<path d="M39.0857 44.6723L38.1033 45.1582L45.3061 59.721L46.2885 59.235L39.0857 44.6723Z" fill="black"/>
<path d="M33.6902 47.341L32.7078 47.8269L39.9106 62.3897L40.893 61.9037L33.6902 47.341Z" fill="black"/>
<path d="M31.2732 48.5365L30.2908 49.0224L37.4936 63.5852L38.476 63.0992L31.2732 48.5365Z" fill="black"/>
<path d="M71.532 57.2861L30.9491 77.3587C29.0397 78.3031 26.7077 77.4949 25.7489 75.5565L1.73829 27.0116C0.779532 25.0732 1.55248 22.7293 3.4619 21.7849L44.0448 1.71228C45.9542 0.767867 48.2862 1.57606 49.245 3.51448L73.2547 52.0576C74.2135 53.996 73.4405 56.34 71.5311 57.2844L71.532 57.2861ZM4.44849 23.7796C3.62201 24.1883 3.28902 25.2025 3.70315 26.0398L27.7129 74.5829C28.1279 75.422 29.1369 75.7702 29.9616 75.3622L70.5445 55.2897C71.371 54.8809 71.704 53.8667 71.2899 53.0294L47.2801 4.48631C46.8651 3.64727 45.8561 3.29905 45.0314 3.70698L4.44849 23.7796Z" fill="black"/>
</g>
<defs>
<clipPath id="clip0_307_261">
<rect width="53" height="62" fill="white" transform="translate(0 23.4971) rotate(-26.3173)"/>
</clipPath>
</defs>
</svg>
