<svg width="67" height="77" viewBox="0 0 67 77" fill="none" xmlns="http://www.w3.org/2000/svg">
<g clip-path="url(#clip0_307_224)">
<mask id="mask0_307_224" style="mask-type:luminance" maskUnits="userSpaceOnUse" x="0" y="0" width="67" height="77">
<path d="M67 0H0V77H67V0Z" fill="white"/>
</mask>
<g mask="url(#mask0_307_224)">
<path d="M37.6969 71.9103L34.7413 73.6176V63.3113C34.5864 62.2974 34.5361 61.2593 34.5542 60.2434C34.5683 59.4513 34.6306 58.6571 34.7413 57.8709V39.2398L43.8416 33.9808V39.9049C43.8416 40.5903 44.3969 41.1466 45.081 41.1466C45.3486 41.1466 45.5961 41.062 45.7973 40.9168L55.5918 35.2587C55.9861 35.029 56.2095 34.6137 56.2095 34.1864H56.2155V26.8311L64.4809 22.0539V49.7376C64.4809 49.7376 64.4909 49.7436 64.4949 49.7476C65.2655 50.4209 66.0965 51.0115 66.9476 51.5779V19.9071V19.889C66.9476 19.8708 66.9476 19.8527 66.9456 19.8346C66.9436 19.8124 66.9415 19.7882 66.9395 19.766C66.9375 19.7499 66.9335 19.7338 66.9315 19.7197C66.9275 19.6955 66.9234 19.6693 66.9174 19.6431C66.9134 19.631 66.9114 19.6209 66.9073 19.6088C66.8993 19.5826 66.8932 19.5524 66.8852 19.5262C66.8832 19.5161 66.8792 19.508 66.8751 19.4979C66.8631 19.4677 66.855 19.4375 66.8409 19.4092C66.8369 19.4012 66.8329 19.3911 66.8289 19.3851C66.8148 19.3548 66.8007 19.3266 66.7866 19.3004C66.7866 19.2984 66.7866 19.2943 66.7826 19.2923C66.7786 19.2883 66.7766 19.2843 66.7725 19.2782C66.7504 19.2419 66.7283 19.2077 66.7041 19.1714C66.6961 19.1613 66.688 19.1512 66.682 19.1412C66.6538 19.1069 66.6256 19.0726 66.5955 19.0424C66.5834 19.0303 66.5733 19.0222 66.5613 19.0101C66.5391 18.988 66.513 18.9678 66.4888 18.9456C66.4707 18.9295 66.4486 18.9154 66.4285 18.8993C66.4144 18.8892 66.4003 18.8831 66.3882 18.871C66.3721 18.859 66.356 18.8469 66.3379 18.8368L34.1216 0.223747C33.7252 -0.00805961 33.2504 0.0100817 32.8782 0.225762L0.665863 18.8408C0.245352 19.0847 0.0240309 19.5382 0.052199 19.9938V57.1433C0.052199 57.5686 0.275532 57.9879 0.671899 58.2136L32.7836 76.7722C32.7836 76.7722 32.7917 76.7763 32.7957 76.7783C32.8379 76.8065 32.8842 76.8347 32.9305 76.8589C32.9426 76.8649 32.9546 76.871 32.9687 76.875C33.011 76.8972 33.0552 76.9133 33.0995 76.9295C33.1075 76.9295 33.1156 76.9355 33.1277 76.9395C33.18 76.9557 33.2323 76.9678 33.2866 76.9778C33.3007 76.9799 33.3148 76.9819 33.3309 76.9839C33.3872 76.9919 33.4415 76.998 33.4979 76.998H33.5039C33.5643 76.998 33.6226 76.9919 33.681 76.9839C33.6951 76.9819 33.7051 76.9799 33.7172 76.9778C33.7735 76.9678 33.8278 76.9557 33.8822 76.9375C33.8882 76.9355 33.8942 76.9335 33.9003 76.9315C33.9486 76.9174 33.9969 76.8972 34.0431 76.875C34.0552 76.871 34.0633 76.867 34.0733 76.8609C34.1216 76.8367 34.1699 76.8065 34.2142 76.7763C34.2162 76.7742 34.2202 76.7722 34.2222 76.7702L38.88 74.0792C38.4555 73.3758 38.0631 72.6501 37.699 71.9103H37.6969ZM53.7367 33.4748L46.3224 37.7602V32.5496L53.7367 28.2642V33.4748ZM33.5019 2.72322L63.2455 19.9132L54.9761 24.6904L25.2325 7.50246L33.5019 2.72322ZM22.7618 8.92958L52.5033 26.1175L44.8718 30.5279L15.1322 13.3399L22.7618 8.92958ZM32.2585 73.6197L2.52094 56.4317V22.0539L31.4014 38.7399L32.2625 39.2378V73.6197H32.2585ZM33.4979 37.1011L32.4114 36.4742L3.75833 19.9132L12.6595 14.7691L42.399 31.957L35.1759 36.1315L33.4979 37.1011Z" fill="black"/>
</g>
<path d="M66.9476 51.5779L66.6197 57.7782L38.8781 74.0792L37.697 71.9083L64.2274 56.5789L64.4849 49.7376L66.9476 51.5779Z" fill="black"/>
</g>
<defs>
<clipPath id="clip0_307_224">
<rect width="67" height="77" fill="white"/>
</clipPath>
</defs>
</svg>
